# xmcd
#
# Track frame offsets:
#	150
#	13825
#	27152
#	42730
#	56415
#	67692
#	80127
#	93495
#	107842
#	121745
#	134595
#	148087
#	160165
#	173257
#	184775
#	197570
#	209680
#	221325
#	235527
#	246177
#	257942
#	272367
#	283260
#	293435
#	304637
#	316407
# Disc length: 4378 seconds
# Revision: 1
# Processed by: cddbd v1.5.1PL0 Copyright (c) Steve Scherf et al.
#
# Submitted via: libkcddb 0.10
#
DISCID=7711181a
DTITLE=Orioles - The Jubilee Recordings [CD 5)
DYEAR=1900
DGENRE=Unknown
TTITLE0=Congratulations To Someone
TTITLE1=(Danger) Soft Shoulders
TTITLE2=Have You Heard
TTITLE3=Lonely Wine
TTITLE4=Bad Little Girl
TTITLE5=Dem Days (Are Gone Forever)
TTITLE6=One More Time
TTITLE7=Crying In The Chapel
TTITLE8=Crying In The Chapel
TTITLE9=Don't You Think I Ought To Know
TTITLE10=Maybe You'll Be There
TTITLE11=Drowning Every Hope I Ever Had
TTITLE12=In The Mission Of St. Augustine (version 1)
TTITLE13=(Please) Write And Tell Me Why (version 1)
TTITLE14=In The Mission Of St. Augustine (version 2)
TTITLE15=(Please) Write And Tell Me Why (version 2)
TTITLE16=Robe Of Calvary
TTITLE17=There's No One But You
TTITLE18=Don't Go To Strangers
TTITLE19=Secret Love
TTITLE20=In The Chapel In The Moonlight
TTITLE21=Thank The Lord! Thank The Lord
TTITLE22=Longing
TTITLE23=If You Believe
TTITLE24=That's When The Good Lord Will Smile
TTITLE25=That's When The Good Lord Will Smile
EXTD=
EXTT0=
EXTT1=
EXTT2=
EXTT3=
EXTT4=
EXTT5=
EXTT6=
EXTT7=
EXTT8=
EXTT9=
EXTT10=
EXTT11=
EXTT12=
EXTT13=
EXTT14=
EXTT15=
EXTT16=
EXTT17=
EXTT18=
EXTT19=
EXTT20=
EXTT21=
EXTT22=
EXTT23=
EXTT24=
EXTT25=
PLAYORDER=
